<svg version="1.1" id="Layer_1" xmlns="http://www.w3.org/2000/svg" xmlns:xlink="http://www.w3.org/1999/xlink" x="0px" y="0px"
	 width="100%" viewBox="0 0 114 111" enable-background="new 0 0 114 111" xml:space="preserve">
<path fill="#000101" opacity="1.000000" stroke="none" 
	d="
M115.000000,43.000000 
	C115.000000,66.333328 115.000000,89.166664 115.000000,112.000000 
	C77.000008,112.000000 39.000015,112.000000 1.000016,112.000000 
	C1.000011,75.000015 1.000011,38.000023 1.000005,1.000026 
	C38.999985,1.000018 76.999969,1.000018 114.999977,1.000009 
	C115.000000,14.833333 115.000000,28.666666 115.000000,43.000000 
M4.995261,88.493134 
	C4.995468,91.823578 4.946154,95.154915 5.006153,98.484283 
	C5.132480,105.494080 7.708254,108.000778 14.740966,108.002274 
	C42.549992,108.008186 70.359016,108.006493 98.168045,108.003586 
	C105.881493,108.002777 108.684532,105.349525 108.700539,97.591980 
	C108.756538,70.449150 108.751389,43.306091 108.704514,16.163227 
	C108.690475,8.037235 105.602821,5.010869 97.511559,5.003983 
	C70.535156,4.981022 43.558720,4.985586 16.582304,5.000749 
	C7.651297,5.005769 5.005755,7.649399 5.000239,16.557863 
	C4.985600,40.203850 4.995264,63.849857 4.995261,88.493134 
z"/>
<path fill="#FBFDFC" opacity="1.000000" stroke="none" 
	d="
M4.995261,87.994492 
	C4.995264,63.849857 4.985600,40.203850 5.000239,16.557863 
	C5.005755,7.649399 7.651297,5.005769 16.582304,5.000749 
	C43.558720,4.985586 70.535156,4.981022 97.511559,5.003983 
	C105.602821,5.010869 108.690475,8.037235 108.704514,16.163227 
	C108.751389,43.306091 108.756538,70.449150 108.700539,97.591980 
	C108.684532,105.349525 105.881493,108.002777 98.168045,108.003586 
	C70.359016,108.006493 42.549992,108.008186 14.740966,108.002274 
	C7.708254,108.000778 5.132480,105.494080 5.006153,98.484283 
	C4.946154,95.154915 4.995468,91.823578 4.995261,87.994492 
M62.135567,46.238621 
	C64.680817,47.960197 68.535217,49.133221 69.528992,51.504894 
	C72.670677,59.002666 69.460777,64.368706 61.001694,67.248451 
	C61.001694,64.016663 61.503708,60.764301 60.811455,57.789894 
	C60.402969,56.034740 58.102730,54.719864 56.653252,53.206985 
	C55.254105,54.755821 52.790924,56.213043 52.648258,57.870056 
	C52.149837,63.659130 52.362202,69.519150 52.486298,75.348343 
	C52.558514,78.740372 55.632118,80.731537 58.503387,79.195045 
	C64.953255,75.743568 73.188866,73.450623 77.072845,68.069725 
	C80.199165,63.738480 78.007271,55.568230 78.173302,49.101273 
	C78.181854,48.768246 78.293808,48.370060 78.154282,48.112274 
	C77.370682,46.664497 76.874039,44.682537 75.639557,43.923180 
	C70.262192,40.615440 64.718781,37.560184 59.102787,34.671604 
	C57.885372,34.045433 55.816948,33.914955 54.656170,34.529770 
	C48.196522,37.951168 39.993053,40.316021 36.140987,45.719231 
	C33.044533,50.062565 35.280621,58.208828 35.155510,64.667747 
	C35.139378,65.500557 35.145741,66.334030 35.154076,67.167061 
	C35.222317,73.986633 32.973309,82.201912 36.004265,87.240448 
	C39.151672,92.472549 47.488228,94.503334 53.392101,98.195343 
	C55.834789,99.722893 57.664806,99.611603 60.104019,98.199608 
	C70.609283,92.118332 81.183220,86.149452 91.855438,80.367195 
	C94.524940,78.920845 95.685341,77.372894 95.634682,74.237289 
	C95.446289,62.576595 95.473442,50.909935 95.621864,39.248085 
	C95.657684,36.432693 94.901024,34.750977 92.318314,33.364666 
	C81.477196,27.545536 70.695549,21.607693 60.037334,15.461506 
	C57.467178,13.979396 55.664036,14.259055 53.271725,15.617289 
	C42.716106,21.610249 32.111095,27.522425 21.399157,33.229591 
	C18.629494,34.705227 17.855158,36.452923 17.911140,39.474007 
	C18.108683,50.134335 17.988417,60.800560 17.988062,71.464546 
	C17.987803,79.302780 17.987373,79.302780 26.310450,82.181618 
	C26.395962,80.478859 26.543077,78.878845 26.545925,77.278564 
	C26.565495,66.281364 26.634970,55.283115 26.498301,44.287563 
	C26.463648,41.499577 27.144173,39.740910 29.776327,38.356140 
	C37.868904,34.098660 45.743092,29.423304 53.870480,25.237158 
	C55.423882,24.437054 58.100513,24.439795 59.651829,25.243687 
	C67.914955,29.525646 76.044365,34.079437 84.064369,38.803455 
	C85.427147,39.606167 86.816643,41.670109 86.860779,43.190083 
	C87.121872,52.180241 87.120506,61.185547 86.865097,70.176033 
	C86.820663,71.740219 85.515564,73.863800 84.159393,74.692299 
	C78.345886,78.243797 71.909340,80.874825 66.429077,84.847328 
	C59.538437,89.842178 53.541622,89.887665 46.923100,84.665741 
	C44.907101,83.075150 43.681198,81.913834 43.775780,79.176895 
	C44.000076,72.686310 44.457302,66.108902 43.684002,59.703781 
	C42.804184,52.416428 45.591309,48.575054 52.033924,45.674515 
	C55.638702,44.051601 58.348244,43.350601 62.135567,46.238621 
z"/>
<path fill="#1F7658" opacity="1.000000" stroke="none" 
	d="
M61.789524,46.075706 
	C58.348244,43.350601 55.638702,44.051601 52.033924,45.674515 
	C45.591309,48.575054 42.804184,52.416428 43.684002,59.703781 
	C44.457302,66.108902 44.000076,72.686310 43.775780,79.176895 
	C43.681198,81.913834 44.907101,83.075150 46.923100,84.665741 
	C53.541622,89.887665 59.538437,89.842178 66.429077,84.847328 
	C71.909340,80.874825 78.345886,78.243797 84.159393,74.692299 
	C85.515564,73.863800 86.820663,71.740219 86.865097,70.176033 
	C87.120506,61.185547 87.121872,52.180241 86.860779,43.190083 
	C86.816643,41.670109 85.427147,39.606167 84.064369,38.803455 
	C76.044365,34.079437 67.914955,29.525646 59.651829,25.243687 
	C58.100513,24.439795 55.423882,24.437054 53.870480,25.237158 
	C45.743092,29.423304 37.868904,34.098660 29.776327,38.356140 
	C27.144173,39.740910 26.463648,41.499577 26.498301,44.287563 
	C26.634970,55.283115 26.565495,66.281364 26.545925,77.278564 
	C26.543077,78.878845 26.395962,80.478859 26.310450,82.181618 
	C17.987373,79.302780 17.987803,79.302780 17.988062,71.464546 
	C17.988417,60.800560 18.108683,50.134335 17.911140,39.474007 
	C17.855158,36.452923 18.629494,34.705227 21.399157,33.229591 
	C32.111095,27.522425 42.716106,21.610249 53.271725,15.617289 
	C55.664036,14.259055 57.467178,13.979396 60.037334,15.461506 
	C70.695549,21.607693 81.477196,27.545536 92.318314,33.364666 
	C94.901024,34.750977 95.657684,36.432693 95.621864,39.248085 
	C95.473442,50.909935 95.446289,62.576595 95.634682,74.237289 
	C95.685341,77.372894 94.524940,78.920845 91.855438,80.367195 
	C81.183220,86.149452 70.609283,92.118332 60.104019,98.199608 
	C57.664806,99.611603 55.834789,99.722893 53.392101,98.195343 
	C47.488228,94.503334 39.151672,92.472549 36.004265,87.240448 
	C32.973309,82.201912 35.222317,73.986633 35.154076,67.167061 
	C35.145741,66.334030 35.139378,65.500557 35.155510,64.667747 
	C35.280621,58.208828 33.044533,50.062565 36.140987,45.719231 
	C39.993053,40.316021 48.196522,37.951168 54.656170,34.529770 
	C55.816948,33.914955 57.885372,34.045433 59.102787,34.671604 
	C64.718781,37.560184 70.262192,40.615440 75.639557,43.923180 
	C76.874039,44.682537 77.370682,46.664497 78.154282,48.112274 
	C78.293808,48.370060 78.181854,48.768246 78.173302,49.101273 
	C78.007271,55.568230 80.199165,63.738480 77.072845,68.069725 
	C73.188866,73.450623 64.953255,75.743568 58.503387,79.195045 
	C55.632118,80.731537 52.558514,78.740372 52.486298,75.348343 
	C52.362202,69.519150 52.149837,63.659130 52.648258,57.870056 
	C52.790924,56.213043 55.254105,54.755821 56.653252,53.206985 
	C58.102730,54.719864 60.402969,56.034740 60.811455,57.789894 
	C61.503708,60.764301 61.001694,64.016663 61.001694,67.248451 
	C69.460777,64.368706 72.670677,59.002666 69.528992,51.504894 
	C68.535217,49.133221 64.680817,47.960197 61.789524,46.075706 
z"/>
</svg>